<svg width="179" height="32" viewBox="0 0 179 32" fill="none" xmlns="http://www.w3.org/2000/svg">
<g clip-path="url(#clip0_3239_238)">
<path d="M21.8123 2.58769C22.1121 2.28789 22.5982 2.28789 22.898 2.58769L27.2406 6.93032C27.5404 7.23012 27.5404 7.71618 27.2406 8.01598L14.4257 20.8309C13.9421 21.3145 14.2846 22.1414 14.9685 22.1414H26.8687C27.2927 22.1414 27.6364 22.4851 27.6364 22.9091V29.0505C27.6364 29.4745 27.2927 29.8182 26.8687 29.8182H13.0505C12.6265 29.8182 12.2828 29.4745 12.2828 29.0505V22.5685C12.2828 22.3649 12.2019 22.1697 12.058 22.0257L7.79248 17.7602C7.64851 17.6162 7.45325 17.5354 7.24965 17.5354H0.767669C0.343693 17.5354 -7.62939e-06 17.1917 -7.62939e-06 16.7677V2.9495C-7.62939e-06 2.52552 0.343693 2.18182 0.767669 2.18182H6.90908C7.33306 2.18182 7.67676 2.52552 7.67676 2.9495V14.8699C7.67676 15.5539 8.50366 15.8964 8.98727 15.4128L21.8123 2.58769Z" fill="#32F191"/>
<path d="M7.67676 22.9091C7.67676 22.4851 7.33306 22.1414 6.90908 22.1414H0.767669C0.343693 22.1414 -7.62939e-06 22.4851 -7.62939e-06 22.9091V29.0505C-7.62939e-06 29.4745 0.343693 29.8182 0.767669 29.8182H6.90908C7.33306 29.8182 7.67676 29.4745 7.67676 29.0505V22.9091Z" fill="#32F191"/>
<path d="M46.0456 30.1034C43.6621 30.1034 41.8098 29.4557 40.4885 28.1604C39.1931 26.8391 38.5454 24.9867 38.5454 22.6033V12.9221C38.5455 10.6673 38.5454 6.7549 38.5454 2.18182H43.6362V8.37542H48.4939V12.9221H43.6362V22.3312C43.6362 23.0307 43.7528 23.6266 43.986 24.1188C44.2451 24.6111 44.6337 24.9867 45.1518 25.2458C45.6959 25.5049 46.3824 25.6344 47.2114 25.6344C47.3928 25.6344 47.6001 25.6215 47.8332 25.5956C48.0923 25.5696 48.3384 25.5437 48.5716 25.5178V29.8703C48.2089 29.9221 47.7944 29.9739 47.328 30.0257C46.8617 30.0775 46.4342 30.1034 46.0456 30.1034Z" fill="#FEFEFE"/>
<path d="M59.8368 30.3366C58.3601 30.3366 57.0776 30.0905 55.9895 29.5982C54.9014 29.106 54.0594 28.4065 53.4636 27.4997C52.8677 26.5671 52.5698 25.4919 52.5698 24.2743C52.5698 23.1085 52.8288 22.0722 53.347 21.1654C53.8651 20.2327 54.6683 19.4555 55.7564 18.8337C56.8445 18.212 58.2176 17.7715 59.8756 17.5125L66.7929 16.3855V20.2716L60.8472 21.282C59.8368 21.4633 59.0855 21.7872 58.5932 22.2535C58.101 22.7198 57.8549 23.3287 57.8549 24.08C57.8549 24.8054 58.1269 25.3883 58.6709 25.8287C59.2409 26.2432 59.9404 26.4505 60.7694 26.4505C61.8316 26.4505 62.7643 26.2303 63.5674 25.7899C64.3965 25.3235 65.0312 24.6888 65.4716 23.8857C65.9379 23.0825 66.1711 22.2017 66.1711 21.2431V15.8026C66.1711 14.8958 65.8084 14.1445 65.083 13.5487C64.3835 12.9269 63.4508 12.616 62.285 12.616C61.1969 12.616 60.2254 12.9139 59.3704 13.5098C58.5414 14.0798 57.9326 14.844 57.544 15.8026L53.3859 13.7818C53.8004 12.6678 54.4481 11.7092 55.3289 10.9061C56.2357 10.0771 57.2979 9.42939 58.5155 8.96306C59.7331 8.49673 61.0544 8.26356 62.4793 8.26356C64.2151 8.26356 65.7436 8.58741 67.0649 9.23509C68.3862 9.85686 69.4095 10.7377 70.1349 11.8776C70.8862 12.9916 71.2619 14.3 71.2619 15.8026V29.8703H66.4431V26.2562L67.5312 26.1785C66.9872 27.0852 66.3395 27.8495 65.5882 28.4713C64.8369 29.0671 63.9819 29.5335 63.0234 29.8703C62.0648 30.1811 61.0026 30.3366 59.8368 30.3366Z" fill="#FEFEFE"/>
<path d="M75.274 29.8703V8.7299H80.0539V12.888L79.6653 12.1497C80.1576 10.8802 80.9607 9.92163 82.0747 9.27395C83.2146 8.60036 84.5359 8.26356 86.0385 8.26356C87.593 8.26356 88.9661 8.60036 90.1578 9.27395C91.3754 9.94754 92.3211 10.8932 92.9946 12.1108C93.6682 13.3025 94.005 14.6886 94.005 16.2689V29.8703H88.9142V17.4736C88.9142 16.5409 88.7329 15.7378 88.3702 15.0642C88.0075 14.3906 87.5023 13.8725 86.8546 13.5098C86.2328 13.1212 85.4945 12.9269 84.6395 12.9269C83.8105 12.9269 83.0721 13.1212 82.4245 13.5098C81.7768 13.8725 81.2716 14.3906 80.9089 15.0642C80.5462 15.7378 80.3648 16.5409 80.3648 17.4736V29.8703H75.274Z" fill="#FEFEFE"/>
<path d="M107.795 30.3366C105.748 30.3366 103.922 29.8573 102.316 28.8987C100.709 27.9143 99.44 26.58 98.5073 24.8961C97.5747 23.2121 97.1083 21.3468 97.1083 19.3001C97.1083 17.2275 97.5747 15.3622 98.5073 13.7041C99.44 12.046 100.709 10.7248 102.316 9.74028C103.948 8.7558 105.761 8.26356 107.756 8.26356C109.362 8.26356 110.787 8.58741 112.031 9.23509C113.3 9.85686 114.298 10.7377 115.023 11.8776L114.246 12.9269V2.18182H119.337V29.8703H114.518V25.7899L115.062 26.8002C114.337 27.9402 113.326 28.821 112.031 29.4428C110.736 30.0387 109.324 30.3366 107.795 30.3366ZM108.339 25.6733C109.505 25.6733 110.528 25.4013 111.409 24.8572C112.29 24.3131 112.977 23.5618 113.469 22.6033C113.987 21.6447 114.246 20.5436 114.246 19.3001C114.246 18.0824 113.987 16.9943 113.469 16.0358C112.977 15.0513 112.29 14.287 111.409 13.743C110.528 13.1989 109.505 12.9269 108.339 12.9269C107.199 12.9269 106.176 13.2119 105.269 13.7818C104.362 14.3259 103.65 15.0772 103.132 16.0358C102.64 16.9684 102.393 18.0565 102.393 19.3001C102.393 20.5436 102.64 21.6447 103.132 22.6033C103.65 23.5618 104.362 24.3131 105.269 24.8572C106.176 25.4013 107.199 25.6733 108.339 25.6733Z" fill="#FEFEFE"/>
<path d="M133.406 30.3366C131.23 30.3366 129.326 29.8444 127.693 28.8599C126.061 27.8754 124.792 26.5412 123.885 24.8572C122.978 23.1732 122.525 21.3079 122.525 19.2612C122.525 17.1368 122.978 15.2585 123.885 13.6264C124.818 11.9683 126.074 10.66 127.655 9.70142C129.261 8.74285 131.048 8.26356 133.017 8.26356C134.675 8.26356 136.126 8.53559 137.37 9.07964C138.639 9.6237 139.714 10.375 140.595 11.3336C141.476 12.2922 142.15 13.3932 142.616 14.6368C143.082 15.8544 143.316 17.1757 143.316 18.6006C143.316 18.9633 143.29 19.3389 143.238 19.7275C143.212 20.1162 143.147 20.453 143.044 20.7379H126.722V16.8518H140.168L137.758 18.6783C137.992 17.4866 137.927 16.4244 137.564 15.4917C137.227 14.559 136.657 13.8207 135.854 13.2766C135.077 12.7326 134.131 12.4605 133.017 12.4605C131.955 12.4605 131.01 12.7326 130.181 13.2766C129.352 13.7948 128.717 14.572 128.276 15.6083C127.862 16.6187 127.706 17.8493 127.81 19.3001C127.706 20.5954 127.875 21.7483 128.315 22.7587C128.782 23.7432 129.455 24.5074 130.336 25.0515C131.243 25.5956 132.279 25.8676 133.445 25.8676C134.611 25.8676 135.595 25.6215 136.398 25.1292C137.227 24.637 137.875 23.9763 138.341 23.1473L142.461 25.1681C142.046 26.1785 141.398 27.0723 140.518 27.8495C139.637 28.6267 138.587 29.2355 137.37 29.676C136.178 30.1164 134.857 30.3366 133.406 30.3366Z" fill="#FEFEFE"/>
<path d="M146.828 29.8703V8.7299H151.608V13.6264L151.064 12.8103C151.453 11.2818 152.23 10.1418 153.396 9.39053C154.561 8.63922 155.935 8.26356 157.515 8.26356C159.251 8.26356 160.779 8.71694 162.1 9.6237C163.422 10.5305 164.277 11.7222 164.665 13.1989L163.227 13.3155C163.875 11.6315 164.847 10.375 166.142 9.54598C167.437 8.69104 168.927 8.26356 170.611 8.26356C172.114 8.26356 173.448 8.60036 174.614 9.27395C175.805 9.94754 176.738 10.8932 177.412 12.1108C178.085 13.3025 178.422 14.6886 178.422 16.2689V29.8703H173.331V17.4736C173.331 16.5409 173.163 15.7378 172.826 15.0642C172.489 14.3906 172.023 13.8725 171.427 13.5098C170.831 13.1212 170.106 12.9269 169.251 12.9269C168.448 12.9269 167.735 13.1212 167.114 13.5098C166.492 13.8725 166.012 14.3906 165.676 15.0642C165.339 15.7378 165.17 16.5409 165.17 17.4736V29.8703H160.08V17.4736C160.08 16.5409 159.911 15.7378 159.575 15.0642C159.238 14.3906 158.758 13.8725 158.137 13.5098C157.541 13.1212 156.828 12.9269 155.999 12.9269C155.196 12.9269 154.484 13.1212 153.862 13.5098C153.24 13.8725 152.761 14.3906 152.424 15.0642C152.087 15.7378 151.919 16.5409 151.919 17.4736V29.8703H146.828Z" fill="#FEFEFE"/>
</g>
<defs>
<clipPath id="clip0_3239_238">
<rect width="178.545" height="32" fill="white"/>
</clipPath>
</defs>
</svg>
